<svg xmlns="http://www.w3.org/2000/svg" xmlns:xlink="http://www.w3.org/1999/xlink" width="500" zoomAndPan="magnify" viewBox="0 0 375 374.999991" height="500" preserveAspectRatio="xMidYMid meet" version="1.0"><defs><g/><clipPath id="f24d5cd479"><path d="M 56.488281 151.464844 L 318.167969 151.464844 L 318.167969 223.464844 L 56.488281 223.464844 Z M 56.488281 151.464844 " clip-rule="nonzero"/></clipPath><clipPath id="239235798e"><path d="M 63.558594 158.238281 L 187.332031 158.238281 L 187.332031 216.761719 L 63.558594 216.761719 Z M 63.558594 158.238281 " clip-rule="nonzero"/></clipPath></defs><g clip-path="url(#f24d5cd479)"><path stroke-linecap="butt" transform="matrix(0.75, 0, 0, 0.75, 56.489269, 151.465435)" fill="none" stroke-linejoin="miter" d="M -0.00131672 -0.000788138 L 348.904956 -0.000788138 L 348.904956 96.092968 L -0.00131672 96.092968 Z M -0.00131672 -0.000788138 " stroke="#000000" stroke-width="6" stroke-opacity="1" stroke-miterlimit="4"/></g><g clip-path="url(#239235798e)"><path fill="#000000" d="M 63.558594 158.238281 L 187.238281 158.238281 L 187.238281 216.761719 L 63.558594 216.761719 Z M 63.558594 158.238281 " fill-opacity="1" fill-rule="nonzero"/></g><g fill="#ffffff" fill-opacity="1"><g transform="translate(87.255195, 196.618288)"><g><path d="M 2.859375 0 L 2.859375 -19.671875 L 14.8125 -19.671875 L 14.8125 -17.359375 L 5.34375 -17.359375 L 5.34375 -11.15625 L 14.109375 -11.15625 L 14.109375 -8.875 L 5.34375 -8.875 L 5.34375 -2.296875 L 15.109375 -2.296875 L 15.109375 0 Z M 2.859375 0 "/></g></g></g><g fill="#ffffff" fill-opacity="1"><g transform="translate(106.32108, 196.618288)"><g><path d="M 2.859375 0 L 2.859375 -19.671875 L 10.359375 -19.671875 C 11.734375 -19.671875 12.925781 -19.410156 13.9375 -18.890625 C 14.945312 -18.378906 15.734375 -17.65625 16.296875 -16.71875 C 16.859375 -15.78125 17.140625 -14.65625 17.140625 -13.34375 C 17.140625 -11.75 16.726562 -10.429688 15.90625 -9.390625 C 15.082031 -8.359375 13.945312 -7.660156 12.5 -7.296875 L 17.453125 0 L 14.46875 0 L 9.671875 -7.046875 L 5.34375 -7.046875 L 5.34375 0 Z M 5.34375 -9.40625 L 10.078125 -9.40625 C 11.523438 -9.40625 12.640625 -9.75 13.421875 -10.4375 C 14.210938 -11.125 14.609375 -12.09375 14.609375 -13.34375 C 14.609375 -14.601562 14.210938 -15.578125 13.421875 -16.265625 C 12.640625 -16.960938 11.523438 -17.3125 10.078125 -17.3125 L 5.34375 -17.3125 Z M 5.34375 -9.40625 "/></g></g></g><g fill="#ffffff" fill-opacity="1"><g transform="translate(127.577054, 196.618288)"><g><path d="M 2.859375 0 L 2.859375 -19.671875 L 5.171875 -19.671875 L 12.890625 -8 L 20.5625 -19.671875 L 22.875 -19.671875 L 22.875 0 L 20.390625 0 L 20.390625 -15.03125 L 13.875 -5.21875 L 11.859375 -5.21875 L 5.34375 -15.0625 L 5.34375 0 Z M 2.859375 0 "/></g></g></g><g fill="#ffffff" fill-opacity="1"><g transform="translate(155.431371, 196.618288)"><g><path d="M 2.859375 0 L 2.859375 -19.671875 L 5.34375 -19.671875 L 5.34375 0 Z M 2.859375 0 "/></g></g></g><g fill="#000000" fill-opacity="1"><g transform="translate(196.260108, 196.769541)"><g><path d="M 9.125 0.421875 C 6.582031 0.421875 4.585938 -0.179688 3.140625 -1.390625 C 1.703125 -2.597656 0.984375 -4.257812 0.984375 -6.375 L 6.46875 -6.375 C 6.46875 -5.625 6.695312 -5.035156 7.15625 -4.609375 C 7.613281 -4.191406 8.242188 -3.984375 9.046875 -3.984375 C 9.734375 -3.984375 10.273438 -4.117188 10.671875 -4.390625 C 11.066406 -4.660156 11.265625 -5.039062 11.265625 -5.53125 C 11.265625 -6.613281 10.082031 -7.390625 7.71875 -7.859375 C 3.320312 -8.703125 1.125 -10.773438 1.125 -14.078125 C 1.125 -15.929688 1.789062 -17.394531 3.125 -18.46875 C 4.46875 -19.550781 6.300781 -20.09375 8.625 -20.09375 C 10.238281 -20.09375 11.640625 -19.816406 12.828125 -19.265625 C 14.015625 -18.722656 14.929688 -17.953125 15.578125 -16.953125 C 16.222656 -15.953125 16.546875 -14.773438 16.546875 -13.421875 L 11.203125 -13.421875 C 11.203125 -14.171875 10.988281 -14.742188 10.5625 -15.140625 C 10.132812 -15.535156 9.523438 -15.734375 8.734375 -15.734375 C 8.078125 -15.734375 7.550781 -15.597656 7.15625 -15.328125 C 6.769531 -15.054688 6.578125 -14.675781 6.578125 -14.1875 C 6.578125 -13.675781 6.835938 -13.253906 7.359375 -12.921875 C 7.878906 -12.585938 8.769531 -12.28125 10.03125 -12 C 12.425781 -11.46875 14.171875 -10.703125 15.265625 -9.703125 C 16.359375 -8.703125 16.90625 -7.390625 16.90625 -5.765625 C 16.90625 -3.828125 16.222656 -2.3125 14.859375 -1.21875 C 13.492188 -0.125 11.582031 0.421875 9.125 0.421875 Z M 9.125 0.421875 "/></g></g></g><g fill="#000000" fill-opacity="1"><g transform="translate(214.206435, 196.769541)"><g><path d="M 6.765625 0 L 6.765625 -14.40625 L 0.78125 -14.40625 L 0.78125 -19.671875 L 18.40625 -19.671875 L 18.40625 -14.40625 L 12.421875 -14.40625 L 12.421875 0 Z M 6.765625 0 "/></g></g></g><g fill="#000000" fill-opacity="1"><g transform="translate(233.3885, 196.769541)"><g><path d="M 10.53125 0.421875 C 8.769531 0.421875 7.242188 0.0820312 5.953125 -0.59375 C 4.660156 -1.28125 3.660156 -2.257812 2.953125 -3.53125 C 2.253906 -4.8125 1.90625 -6.332031 1.90625 -8.09375 L 1.90625 -19.671875 L 7.578125 -19.671875 L 7.578125 -8.453125 C 7.578125 -6.078125 8.5625 -4.890625 10.53125 -4.890625 C 12.5 -4.890625 13.484375 -6.078125 13.484375 -8.453125 L 13.484375 -19.671875 L 19.125 -19.671875 L 19.125 -8.09375 C 19.125 -6.332031 18.773438 -4.8125 18.078125 -3.53125 C 17.390625 -2.257812 16.40625 -1.28125 15.125 -0.59375 C 13.84375 0.0820312 12.3125 0.421875 10.53125 0.421875 Z M 10.53125 0.421875 "/></g></g></g><g fill="#000000" fill-opacity="1"><g transform="translate(254.452267, 196.769541)"><g><path d="M 2.078125 0 L 2.078125 -19.671875 L 10.421875 -19.671875 C 12.535156 -19.671875 14.382812 -19.257812 15.96875 -18.4375 C 17.550781 -17.625 18.78125 -16.476562 19.65625 -15 C 20.539062 -13.519531 20.984375 -11.796875 20.984375 -9.828125 C 20.984375 -7.867188 20.539062 -6.144531 19.65625 -4.65625 C 18.78125 -3.175781 17.550781 -2.03125 15.96875 -1.21875 C 14.382812 -0.40625 12.535156 0 10.421875 0 Z M 7.75 -5.078125 L 10.25 -5.078125 C 11.75 -5.078125 12.945312 -5.507812 13.84375 -6.375 C 14.75 -7.238281 15.203125 -8.390625 15.203125 -9.828125 C 15.203125 -11.273438 14.75 -12.425781 13.84375 -13.28125 C 12.945312 -14.144531 11.75 -14.578125 10.25 -14.578125 L 7.75 -14.578125 Z M 7.75 -5.078125 "/></g></g></g><g fill="#000000" fill-opacity="1"><g transform="translate(276.386658, 196.769541)"><g><path d="M 2.078125 0 L 2.078125 -19.671875 L 7.75 -19.671875 L 7.75 0 Z M 2.078125 0 "/></g></g></g><g fill="#000000" fill-opacity="1"><g transform="translate(286.216418, 196.769541)"><g><path d="M 11.65625 0.421875 C 10.082031 0.421875 8.644531 0.175781 7.34375 -0.3125 C 6.039062 -0.8125 4.910156 -1.519531 3.953125 -2.4375 C 3.003906 -3.363281 2.265625 -4.453125 1.734375 -5.703125 C 1.210938 -6.953125 0.953125 -8.328125 0.953125 -9.828125 C 0.953125 -11.328125 1.210938 -12.703125 1.734375 -13.953125 C 2.265625 -15.210938 3.003906 -16.300781 3.953125 -17.21875 C 4.910156 -18.132812 6.039062 -18.84375 7.34375 -19.34375 C 8.644531 -19.84375 10.082031 -20.09375 11.65625 -20.09375 C 13.226562 -20.09375 14.664062 -19.84375 15.96875 -19.34375 C 17.269531 -18.84375 18.398438 -18.132812 19.359375 -17.21875 C 20.316406 -16.300781 21.054688 -15.210938 21.578125 -13.953125 C 22.097656 -12.703125 22.359375 -11.328125 22.359375 -9.828125 C 22.359375 -8.328125 22.097656 -6.953125 21.578125 -5.703125 C 21.054688 -4.453125 20.316406 -3.363281 19.359375 -2.4375 C 18.398438 -1.519531 17.269531 -0.8125 15.96875 -0.3125 C 14.664062 0.175781 13.226562 0.421875 11.65625 0.421875 Z M 6.71875 -9.828125 C 6.71875 -8.859375 6.925781 -7.992188 7.34375 -7.234375 C 7.769531 -6.472656 8.351562 -5.878906 9.09375 -5.453125 C 9.84375 -5.035156 10.695312 -4.828125 11.65625 -4.828125 C 12.632812 -4.828125 13.492188 -5.035156 14.234375 -5.453125 C 14.972656 -5.878906 15.550781 -6.472656 15.96875 -7.234375 C 16.394531 -7.992188 16.609375 -8.859375 16.609375 -9.828125 C 16.609375 -10.828125 16.394531 -11.695312 15.96875 -12.4375 C 15.550781 -13.1875 14.972656 -13.769531 14.234375 -14.1875 C 13.492188 -14.613281 12.632812 -14.828125 11.65625 -14.828125 C 10.695312 -14.828125 9.84375 -14.613281 9.09375 -14.1875 C 8.351562 -13.769531 7.769531 -13.1875 7.34375 -12.4375 C 6.925781 -11.695312 6.71875 -10.828125 6.71875 -9.828125 Z M 6.71875 -9.828125 "/></g></g></g></svg>