<svg xmlns="http://www.w3.org/2000/svg" xmlns:xlink="http://www.w3.org/1999/xlink" width="500" zoomAndPan="magnify" viewBox="0 0 375 374.999991" height="500" preserveAspectRatio="xMidYMid meet" version="1.0"><defs><g/><clipPath id="bc6e55f468"><path d="M 40.847656 172.523438 L 334.152344 172.523438 L 334.152344 202.476562 L 40.847656 202.476562 Z M 40.847656 172.523438 " clip-rule="nonzero"/></clipPath></defs><g fill="#fbfaf9" fill-opacity="1"><g transform="translate(30.912981, 232.163411)"><g><path d="M 77.5625 -37.78125 L 78.359375 -37.78125 L 78.359375 0 L 4.25 0 L 4.25 -0.796875 L 11.4375 -7.71875 L 11.4375 -82.078125 L 4.25 -89 L 4.25 -89.796875 L 77.5625 -89.796875 L 77.5625 -52.015625 L 76.765625 -52.015625 L 69.3125 -63.59375 C 66.289062 -68.375 63.71875 -72.316406 61.59375 -75.421875 C 59.46875 -78.523438 57.382812 -80.941406 55.34375 -82.671875 C 53.300781 -84.398438 50.992188 -85.617188 48.421875 -86.328125 C 45.847656 -87.046875 42.613281 -87.40625 38.71875 -87.40625 L 37.375 -87.40625 L 37.375 -46.421875 L 38.71875 -46.421875 C 41.101562 -46.421875 43.335938 -46.820312 45.421875 -47.625 C 47.515625 -48.425781 49.691406 -50.132812 51.953125 -52.75 C 54.210938 -55.363281 56.757812 -59.375 59.59375 -64.78125 L 60.390625 -64.78125 L 60.390625 -25.8125 L 59.59375 -25.8125 C 56.84375 -30.863281 54.335938 -34.71875 52.078125 -37.375 C 49.816406 -40.039062 47.617188 -41.835938 45.484375 -42.765625 C 43.359375 -43.703125 41.101562 -44.171875 38.71875 -44.171875 L 37.375 -44.171875 L 37.375 -2.390625 L 39.515625 -2.390625 C 43.410156 -2.390625 46.644531 -2.742188 49.21875 -3.453125 C 51.789062 -4.160156 54.097656 -5.378906 56.140625 -7.109375 C 58.179688 -8.847656 60.265625 -11.269531 62.390625 -14.375 C 64.515625 -17.476562 67.085938 -21.421875 70.109375 -26.203125 C 71.171875 -27.890625 72.320312 -29.6875 73.5625 -31.59375 C 74.800781 -33.5 76.132812 -35.5625 77.5625 -37.78125 Z M 77.5625 -37.78125 "/></g></g></g><g fill="#fbfaf9" fill-opacity="1"><g transform="translate(113.126628, 232.163411)"><g><path d="M 46.421875 -43.109375 L 65.71875 -43.90625 L 88.203125 -1.203125 L 88.203125 0 L 51.078125 0 L 51.078125 -0.796875 L 57.734375 -7.71875 L 40.4375 -43.90625 L 37.375 -43.90625 L 37.375 -8.25 L 44.296875 -0.796875 L 44.296875 0 L 4.515625 0 L 4.515625 -0.796875 L 11.4375 -8.25 L 11.578125 -82.078125 L 4.390625 -89 L 4.390625 -89.796875 L 46.6875 -89.796875 C 53.425781 -89.796875 59.585938 -89.21875 65.171875 -88.0625 C 70.765625 -86.914062 75.242188 -84.898438 78.609375 -82.015625 C 81.984375 -79.128906 83.671875 -75.070312 83.671875 -69.84375 C 83.671875 -66.113281 82.519531 -62.5 80.21875 -59 C 77.914062 -55.5 74.054688 -52.414062 68.640625 -49.75 C 63.234375 -47.09375 55.828125 -45.1875 46.421875 -44.03125 Z M 37.375 -87.40625 L 37.375 -46.296875 L 41.375 -46.296875 C 44.738281 -46.296875 47.441406 -46.957031 49.484375 -48.28125 C 51.523438 -49.613281 53.03125 -51.390625 54 -53.609375 C 54.976562 -55.828125 55.625 -58.222656 55.9375 -60.796875 C 56.25 -63.367188 56.40625 -65.894531 56.40625 -68.375 C 56.40625 -71.832031 56.050781 -75.003906 55.34375 -77.890625 C 54.632812 -80.773438 53.300781 -83.082031 51.34375 -84.8125 C 49.394531 -86.539062 46.515625 -87.40625 42.703125 -87.40625 Z M 37.375 -87.40625 "/></g></g></g><g fill="#fbfaf9" fill-opacity="1"><g transform="translate(199.198205, 232.163411)"><g><path d="M 95.921875 -89.796875 L 95.921875 -89 L 90.859375 -82.078125 L 91 0 L 57.875 0 L 57.875 -0.796875 L 65.046875 -7.71875 L 64.921875 -70.5 L 64.125 -70.5 L 41.90625 -15.828125 L 40.4375 -15.828125 L 14.234375 -69.3125 L 13.5625 -69.3125 L 13.5625 -60.390625 C 13.5625 -46.117188 15.691406 -34.28125 19.953125 -24.875 C 24.210938 -15.476562 30.46875 -7.410156 38.71875 -0.671875 L 38.71875 0 L 10.640625 0 L 10.640625 -75.6875 L 3.1875 -89 L 3.1875 -89.796875 L 31.921875 -90.0625 L 51.21875 -49.359375 L 51.875 -49.359375 L 68.109375 -89.796875 Z M 95.921875 -89.796875 "/></g></g></g><g fill="#fbfaf9" fill-opacity="1"><g transform="translate(295.912325, 232.163411)"><g><path d="M 11.046875 -8.25 L 11.046875 -81.546875 L 4.25 -89 L 4.25 -89.796875 L 43.90625 -89.796875 L 43.90625 -89 L 37.109375 -81.546875 L 37.109375 -8.25 L 43.90625 -0.796875 L 43.90625 0 L 4.25 0 L 4.25 -0.796875 Z M 11.046875 -8.25 "/></g></g></g><g clip-path="url(#bc6e55f468)"><path fill="#231f20" d="M 40.847656 172.523438 L 334.210938 172.523438 L 334.210938 202.476562 L 40.847656 202.476562 Z M 40.847656 172.523438 " fill-opacity="1" fill-rule="nonzero"/></g><g fill="#fbfaf9" fill-opacity="1"><g transform="translate(101.710017, 189.699728)"><g><path d="M 0.484375 0 L 0.484375 -6.796875 L 1.8125 -6.796875 L 1.8125 -4.046875 L 6.875 -4.046875 L 6.875 -6.796875 L 8.203125 -6.796875 L 8.203125 0 L 6.875 0 L 6.875 -3.046875 L 1.8125 -3.046875 L 1.8125 0 Z M 0.484375 0 "/></g></g></g><g fill="#fbfaf9" fill-opacity="1"><g transform="translate(118.056401, 189.699728)"><g><path d="M 0.03125 0 L 3.578125 -6.796875 L 5.125 -6.796875 L 8.625 0 L 7.234375 0 L 6.453125 -1.484375 L 2.203125 -1.484375 L 1.421875 0 Z M 2.59375 -2.40625 L 6.078125 -2.40625 L 4.34375 -5.828125 L 4.328125 -5.828125 Z M 2.59375 -2.40625 "/></g></g></g><g fill="#fbfaf9" fill-opacity="1"><g transform="translate(134.393207, 189.699728)"><g><path d="M 0.484375 0 L 0.484375 -6.796875 L 1.796875 -6.796875 L 1.796875 0 Z M 0.484375 0 "/></g></g></g><g fill="#fbfaf9" fill-opacity="1"><g transform="translate(144.341315, 189.699728)"><g><path d="M 0.484375 0 L 0.484375 -6.796875 L 1.8125 -6.796875 L 1.8125 -1.046875 L 6.15625 -1.046875 L 6.15625 0 Z M 0.484375 0 "/></g></g></g><g fill="#fbfaf9" fill-opacity="1"><g transform="translate(158.245243, 189.699728)"><g><path d="M 0.484375 0 L 0.484375 -6.796875 L 7.234375 -6.796875 L 7.234375 -5.8125 L 1.765625 -5.8125 L 1.765625 -3.9375 L 6.84375 -3.9375 L 6.84375 -3.046875 L 1.765625 -3.046875 L 1.765625 -0.96875 L 7.328125 -0.96875 L 7.328125 0 Z M 0.484375 0 "/></g></g></g><g fill="#fbfaf9" fill-opacity="1"><g transform="translate(173.432654, 189.699728)"><g><path d="M 0.484375 0 L 0.484375 -6.796875 L 2.328125 -6.796875 L 5.390625 -1.203125 L 8.421875 -6.796875 L 10.296875 -6.796875 L 10.296875 0 L 9.015625 0 L 9.015625 -5.40625 L 9 -5.40625 L 6.0625 0 L 4.734375 0 L 1.78125 -5.40625 L 1.765625 -5.40625 L 1.765625 0 Z M 0.484375 0 "/></g></g></g><g fill="#fbfaf9" fill-opacity="1"><g transform="translate(191.876667, 189.699728)"><g><path d="M 0.484375 0 L 0.484375 -6.796875 L 1.796875 -6.796875 L 1.796875 0 Z M 0.484375 0 "/></g></g></g><g fill="#fbfaf9" fill-opacity="1"><g transform="translate(201.824769, 189.699728)"><g><path d="M 5.046875 0.21875 C 4.097656 0.21875 3.269531 0.0703125 2.5625 -0.21875 C 1.863281 -0.507812 1.320312 -0.925781 0.9375 -1.46875 C 0.550781 -2.007812 0.359375 -2.648438 0.359375 -3.390625 C 0.359375 -4.128906 0.535156 -4.765625 0.890625 -5.296875 C 1.253906 -5.835938 1.765625 -6.253906 2.421875 -6.546875 C 3.078125 -6.847656 3.847656 -7 4.734375 -7 C 5.378906 -7 5.972656 -6.898438 6.515625 -6.703125 C 7.054688 -6.515625 7.519531 -6.25 7.90625 -5.90625 C 8.289062 -5.5625 8.5625 -5.148438 8.71875 -4.671875 L 7.515625 -4.3125 C 7.359375 -4.820312 7.03125 -5.222656 6.53125 -5.515625 C 6.039062 -5.816406 5.453125 -5.96875 4.765625 -5.96875 C 4.140625 -5.96875 3.597656 -5.859375 3.140625 -5.640625 C 2.679688 -5.429688 2.328125 -5.132812 2.078125 -4.75 C 1.828125 -4.363281 1.703125 -3.910156 1.703125 -3.390625 C 1.703125 -2.867188 1.835938 -2.414062 2.109375 -2.03125 C 2.378906 -1.644531 2.769531 -1.34375 3.28125 -1.125 C 3.789062 -0.914062 4.382812 -0.8125 5.0625 -0.8125 C 5.59375 -0.8125 6.066406 -0.890625 6.484375 -1.046875 C 6.910156 -1.203125 7.269531 -1.414062 7.5625 -1.6875 C 7.851562 -1.96875 8.054688 -2.300781 8.171875 -2.6875 L 9.40625 -2.390625 C 9.25 -1.859375 8.96875 -1.394531 8.5625 -1 C 8.15625 -0.613281 7.648438 -0.3125 7.046875 -0.09375 C 6.453125 0.113281 5.785156 0.21875 5.046875 0.21875 Z M 5.046875 0.21875 "/></g></g></g><g fill="#fbfaf9" fill-opacity="1"><g transform="translate(219.157702, 189.699728)"><g><path d="M 0.484375 0 L 0.484375 -6.796875 L 1.8125 -6.796875 L 1.8125 -4.046875 L 6.875 -4.046875 L 6.875 -6.796875 L 8.203125 -6.796875 L 8.203125 0 L 6.875 0 L 6.875 -3.046875 L 1.8125 -3.046875 L 1.8125 0 Z M 0.484375 0 "/></g></g></g><g fill="#fbfaf9" fill-opacity="1"><g transform="translate(235.504081, 189.699728)"><g><path d="M 0.03125 0 L 3.578125 -6.796875 L 5.125 -6.796875 L 8.625 0 L 7.234375 0 L 6.453125 -1.484375 L 2.203125 -1.484375 L 1.421875 0 Z M 2.59375 -2.40625 L 6.078125 -2.40625 L 4.34375 -5.828125 L 4.328125 -5.828125 Z M 2.59375 -2.40625 "/></g></g></g><g fill="#fbfaf9" fill-opacity="1"><g transform="translate(251.840881, 189.699728)"><g><path d="M 0.484375 0 L 0.484375 -6.796875 L 7.234375 -6.796875 L 7.234375 -5.8125 L 1.765625 -5.8125 L 1.765625 -3.9375 L 6.84375 -3.9375 L 6.84375 -3.046875 L 1.765625 -3.046875 L 1.765625 -0.96875 L 7.328125 -0.96875 L 7.328125 0 Z M 0.484375 0 "/></g></g></g><g fill="#fbfaf9" fill-opacity="1"><g transform="translate(267.028286, 189.699728)"><g><path d="M 0.484375 0 L 0.484375 -6.796875 L 1.8125 -6.796875 L 1.8125 -1.046875 L 6.15625 -1.046875 L 6.15625 0 Z M 0.484375 0 "/></g></g></g></svg>