<svg xmlns="http://www.w3.org/2000/svg" xmlns:xlink="http://www.w3.org/1999/xlink" width="1366" zoomAndPan="magnify" viewBox="0 0 1024.5 576" height="768" preserveAspectRatio="xMidYMid meet" version="1.0"><defs><g/></defs><path fill="#000000" d="M 350.613281 51.523438 L 350.613281 484.734375 L 641.578125 484.734375 L 641.578125 51.523438 Z M 354.960938 480.066406 L 354.960938 56.203125 L 637.230469 56.203125 L 637.230469 480.066406 Z M 354.960938 480.066406 " fill-opacity="1" fill-rule="nonzero"/><g fill="#000000" fill-opacity="1"><g transform="translate(393.386109, 197.394079)"><g><path d="M 52.125 0 L 12.75 0 C 11.445312 0.0820312 9.894531 0.164062 8.09375 0.25 C 6.289062 0.332031 4.820312 0.375 3.6875 0.375 C 3.601562 0.375 3.4375 -0.0507812 3.1875 -0.90625 C 2.945312 -1.769531 3.007812 -2.734375 3.375 -3.796875 C 3.738281 -4.859375 4.78125 -5.640625 6.5 -6.140625 C 7.476562 -6.378906 8.457031 -6.804688 9.4375 -7.421875 C 10.425781 -8.035156 11.242188 -9.300781 11.890625 -11.21875 C 12.546875 -13.144531 12.875 -16.109375 12.875 -20.109375 L 12.875 -65.75 C 12.875 -69.832031 12.546875 -72.8125 11.890625 -74.6875 C 11.242188 -76.570312 10.425781 -77.820312 9.4375 -78.4375 C 8.457031 -79.050781 7.476562 -79.484375 6.5 -79.734375 C 4.78125 -80.222656 3.738281 -81 3.375 -82.0625 C 3.007812 -83.125 2.945312 -84.082031 3.1875 -84.9375 C 3.4375 -85.800781 3.601562 -86.234375 3.6875 -86.234375 C 4.820312 -86.234375 6.289062 -86.191406 8.09375 -86.109375 C 9.894531 -86.023438 11.445312 -85.941406 12.75 -85.859375 L 52.125 -85.859375 C 56.539062 -85.859375 60.203125 -86.039062 63.109375 -86.40625 C 66.015625 -86.78125 68.382812 -87.148438 70.21875 -87.515625 C 72.0625 -87.878906 73.597656 -88.019531 74.828125 -87.9375 C 77.191406 -87.9375 78.253906 -86.671875 78.015625 -84.140625 C 77.441406 -78.742188 77.273438 -73.65625 77.515625 -68.875 C 77.765625 -64.09375 78.335938 -59.535156 79.234375 -55.203125 C 79.234375 -55.203125 78.722656 -55.179688 77.703125 -55.140625 C 76.679688 -55.097656 75.472656 -55.21875 74.078125 -55.5 C 72.691406 -55.789062 71.425781 -56.363281 70.28125 -57.21875 C 69.132812 -58.070312 68.398438 -59.398438 68.078125 -61.203125 C 67.335938 -65.296875 66.578125 -68.546875 65.796875 -70.953125 C 65.023438 -73.367188 63.90625 -75.191406 62.4375 -76.421875 C 60.957031 -77.640625 58.972656 -78.410156 56.484375 -78.734375 C 53.992188 -79.066406 50.703125 -79.234375 46.609375 -79.234375 C 44.722656 -79.234375 43.472656 -78.722656 42.859375 -77.703125 C 42.253906 -76.679688 41.953125 -75.472656 41.953125 -74.078125 L 41.953125 -52.5 C 41.953125 -51.675781 42.132812 -50.796875 42.5 -49.859375 C 42.863281 -48.921875 43.578125 -48.453125 44.640625 -48.453125 C 45.140625 -48.453125 45.710938 -48.472656 46.359375 -48.515625 C 47.015625 -48.554688 47.914062 -48.613281 49.0625 -48.6875 C 50.945312 -48.851562 52.335938 -49.140625 53.234375 -49.546875 C 54.128906 -49.960938 54.820312 -50.757812 55.3125 -51.9375 C 55.800781 -53.125 56.332031 -54.945312 56.90625 -57.40625 C 57.320312 -58.957031 58.097656 -59.851562 59.234375 -60.09375 C 60.378906 -60.34375 61.460938 -60.363281 62.484375 -60.15625 C 63.515625 -59.957031 64.03125 -59.859375 64.03125 -59.859375 C 63.613281 -56.992188 63.382812 -53.722656 63.34375 -50.046875 C 63.3125 -46.367188 63.414062 -42.726562 63.65625 -39.125 C 63.90625 -35.53125 64.234375 -32.382812 64.640625 -29.6875 C 64.640625 -29.6875 64.128906 -29.664062 63.109375 -29.625 C 62.085938 -29.582031 61.003906 -29.722656 59.859375 -30.046875 C 58.710938 -30.378906 57.9375 -31.15625 57.53125 -32.375 C 56.789062 -35 56.132812 -36.941406 55.5625 -38.203125 C 54.988281 -39.472656 54.25 -40.332031 53.34375 -40.78125 C 52.445312 -41.226562 51.101562 -41.492188 49.3125 -41.578125 C 48 -41.742188 47.015625 -41.828125 46.359375 -41.828125 C 45.710938 -41.828125 45.140625 -41.828125 44.640625 -41.828125 C 43.578125 -41.828125 42.863281 -41.351562 42.5 -40.40625 C 42.132812 -39.46875 41.953125 -38.59375 41.953125 -37.78125 L 41.953125 -12.140625 C 41.953125 -9.359375 42.253906 -7.742188 42.859375 -7.296875 C 43.472656 -6.847656 44.722656 -6.625 46.609375 -6.625 C 50.859375 -6.625 54.25 -6.804688 56.78125 -7.171875 C 59.320312 -7.546875 61.328125 -8.265625 62.796875 -9.328125 C 64.347656 -10.472656 65.570312 -12.1875 66.46875 -14.46875 C 67.375 -16.757812 68.359375 -20.398438 69.421875 -25.390625 C 69.828125 -27.273438 70.6875 -28.625 72 -29.4375 C 73.3125 -30.257812 74.722656 -30.769531 76.234375 -30.96875 C 77.742188 -31.175781 79.03125 -31.21875 80.09375 -31.09375 C 81.15625 -30.96875 81.6875 -30.828125 81.6875 -30.671875 C 80.789062 -24.773438 80.257812 -19.722656 80.09375 -15.515625 C 79.925781 -11.304688 80.050781 -6.867188 80.46875 -2.203125 C 80.625 -0.898438 80.332031 0.15625 79.59375 0.96875 C 78.863281 1.789062 77.925781 2.160156 76.78125 2.078125 C 75.71875 2.078125 74.265625 1.894531 72.421875 1.53125 C 70.585938 1.164062 68.054688 0.816406 64.828125 0.484375 C 61.597656 0.160156 57.363281 0 52.125 0 Z M 52.125 0 "/></g></g></g><g fill="#000000" fill-opacity="1"><g transform="translate(477.521379, 197.394079)"><g><path d="M 81.8125 -33.234375 C 84.101562 -26.535156 86.375 -21.019531 88.625 -16.6875 C 90.875 -12.351562 93 -8.9375 95 -6.4375 C 97 -3.945312 98.710938 -2.128906 100.140625 -0.984375 C 101.578125 0.160156 102.582031 0.9375 103.15625 1.34375 C 102.75 2.738281 101.910156 3.925781 100.640625 4.90625 C 99.367188 5.882812 97.140625 6.375 93.953125 6.375 C 87.742188 6.375 81.550781 4.390625 75.375 0.421875 C 69.195312 -3.535156 63.347656 -9.007812 57.828125 -16 C 52.304688 -23 47.460938 -31.078125 43.296875 -40.234375 C 43.128906 -40.804688 43.1875 -41.378906 43.46875 -41.953125 C 43.757812 -42.523438 44.4375 -42.890625 45.5 -43.046875 L 46.359375 -43.171875 C 51.597656 -43.910156 55.035156 -45.726562 56.671875 -48.625 C 58.304688 -51.53125 59.125 -55.679688 59.125 -61.078125 C 59.125 -65.828125 58.46875 -69.609375 57.15625 -72.421875 C 55.851562 -75.242188 54.238281 -77.289062 52.3125 -78.5625 C 50.394531 -79.832031 48.453125 -80.46875 46.484375 -80.46875 L 46.359375 -80.46875 C 44.640625 -80.46875 43.492188 -80.117188 42.921875 -79.421875 C 42.359375 -78.722656 42.078125 -77.394531 42.078125 -75.4375 L 42.078125 -20.109375 C 42.078125 -16.109375 42.398438 -13.144531 43.046875 -11.21875 C 43.703125 -9.300781 44.539062 -8.035156 45.5625 -7.421875 C 46.582031 -6.804688 47.546875 -6.378906 48.453125 -6.140625 C 50.171875 -5.640625 51.210938 -4.859375 51.578125 -3.796875 C 51.941406 -2.734375 52.019531 -1.769531 51.8125 -0.90625 C 51.613281 -0.0507812 51.429688 0.375 51.265625 0.375 C 50.203125 0.375 48.75 0.332031 46.90625 0.25 C 45.070312 0.164062 43.5 0.0820312 42.1875 0 L 12.75 0 C 11.445312 0.0820312 9.894531 0.164062 8.09375 0.25 C 6.289062 0.332031 4.820312 0.375 3.6875 0.375 C 3.601562 0.375 3.4375 -0.0507812 3.1875 -0.90625 C 2.945312 -1.769531 3.007812 -2.734375 3.375 -3.796875 C 3.738281 -4.859375 4.78125 -5.640625 6.5 -6.140625 C 7.476562 -6.378906 8.457031 -6.804688 9.4375 -7.421875 C 10.425781 -8.035156 11.242188 -9.300781 11.890625 -11.21875 C 12.546875 -13.144531 12.875 -16.109375 12.875 -20.109375 L 12.875 -65.75 C 12.875 -69.832031 12.546875 -72.8125 11.890625 -74.6875 C 11.242188 -76.570312 10.425781 -77.820312 9.4375 -78.4375 C 8.457031 -79.050781 7.476562 -79.484375 6.5 -79.734375 C 4.78125 -80.222656 3.738281 -81 3.375 -82.0625 C 3.007812 -83.125 2.945312 -84.082031 3.1875 -84.9375 C 3.4375 -85.800781 3.601562 -86.234375 3.6875 -86.234375 L 12.75 -85.859375 C 17.164062 -85.859375 22.785156 -86.0625 29.609375 -86.46875 C 36.441406 -86.882812 43.457031 -87.09375 50.65625 -87.09375 C 64.71875 -87.09375 75.160156 -85.109375 81.984375 -81.140625 C 88.816406 -77.171875 92.234375 -70.8125 92.234375 -62.0625 C 92.234375 -54.863281 89.453125 -49.28125 83.890625 -45.3125 C 78.335938 -41.351562 70.125 -39.171875 59.25 -38.765625 L 59.25 -38.03125 C 62.101562 -37.78125 65.039062 -37.59375 68.0625 -37.46875 C 71.09375 -37.34375 74.203125 -37.242188 77.390625 -37.171875 C 78.785156 -37.085938 79.769531 -36.757812 80.34375 -36.1875 C 80.914062 -35.613281 81.40625 -34.628906 81.8125 -33.234375 Z M 81.8125 -33.234375 "/></g></g></g><g fill="#000000" fill-opacity="1"><g transform="translate(395.928688, 312.031589)"><g><path d="M 5.03125 0 C 3.800781 0 2.984375 -0.691406 2.578125 -2.078125 C 2.171875 -3.472656 2.5 -4.539062 3.5625 -5.28125 C 4.132812 -5.6875 4.953125 -6.175781 6.015625 -6.75 C 8.222656 -7.894531 9.328125 -9.648438 9.328125 -12.015625 L 11.65625 -77.890625 C 11.40625 -79.847656 10.34375 -81.28125 8.46875 -82.1875 C 7.40625 -82.75 6.585938 -83.238281 6.015625 -83.65625 C 4.953125 -84.382812 4.625 -85.441406 5.03125 -86.828125 C 5.4375 -88.222656 6.253906 -88.921875 7.484375 -88.921875 L 39.5 -88.921875 C 41.863281 -88.921875 43.539062 -87.773438 44.53125 -85.484375 L 63.90625 -37.53125 L 81.5625 -85.484375 C 82.539062 -87.773438 84.21875 -88.921875 86.59375 -88.921875 L 116.28125 -88.921875 C 117.582031 -88.921875 118.457031 -88.222656 118.90625 -86.828125 C 119.363281 -85.441406 119.0625 -84.382812 118 -83.65625 C 117.664062 -83.40625 117.316406 -83.15625 116.953125 -82.90625 C 116.585938 -82.664062 116.195312 -82.460938 115.78125 -82.296875 C 113.90625 -81.078125 112.882812 -79.40625 112.71875 -77.28125 L 115.90625 -12.015625 C 115.90625 -9.804688 116.929688 -8.007812 118.984375 -6.625 C 119.390625 -6.457031 119.773438 -6.25 120.140625 -6 C 120.503906 -5.757812 120.851562 -5.519531 121.1875 -5.28125 C 122.25 -4.539062 122.554688 -3.472656 122.109375 -2.078125 C 121.660156 -0.691406 120.78125 0 119.46875 0 L 81.5625 0 C 80.34375 0 79.523438 -0.691406 79.109375 -2.078125 C 78.703125 -3.472656 78.988281 -4.539062 79.96875 -5.28125 C 80.375 -5.519531 80.78125 -5.757812 81.1875 -6 C 81.601562 -6.25 82.015625 -6.5 82.421875 -6.75 C 83.484375 -7.238281 84.300781 -7.972656 84.875 -8.953125 C 85.445312 -9.929688 85.773438 -10.953125 85.859375 -12.015625 L 83.03125 -67.828125 L 60.109375 -3.4375 C 59.117188 -1.144531 57.484375 0 55.203125 0 L 49.4375 0 C 47.0625 0 45.382812 -1.144531 44.40625 -3.4375 L 19.875 -68.203125 L 17.90625 -12.015625 C 17.820312 -10.953125 18.085938 -9.953125 18.703125 -9.015625 C 19.316406 -8.078125 20.113281 -7.28125 21.09375 -6.625 C 21.425781 -6.457031 21.773438 -6.25 22.140625 -6 C 22.503906 -5.757812 22.851562 -5.519531 23.1875 -5.28125 C 24.25 -4.539062 24.570312 -3.472656 24.15625 -2.078125 C 23.75 -0.691406 22.894531 0 21.59375 0 Z M 5.03125 0 "/></g></g></g><g fill="#000000" fill-opacity="1"><g transform="translate(520.537191, 312.031589)"><g><path d="M 9.9375 0 C 8.707031 0 7.890625 -0.691406 7.484375 -2.078125 C 7.078125 -3.472656 7.40625 -4.539062 8.46875 -5.28125 C 9.039062 -5.6875 9.859375 -6.175781 10.921875 -6.75 C 13.128906 -7.894531 14.234375 -9.648438 14.234375 -12.015625 L 14.234375 -76.90625 C 14.234375 -79.351562 13.128906 -81.113281 10.921875 -82.1875 C 9.859375 -82.75 9.039062 -83.238281 8.46875 -83.65625 C 7.40625 -84.382812 7.078125 -85.441406 7.484375 -86.828125 C 7.890625 -88.222656 8.707031 -88.921875 9.9375 -88.921875 L 47.953125 -88.921875 C 49.265625 -88.921875 50.125 -88.222656 50.53125 -86.828125 C 50.9375 -85.441406 50.609375 -84.382812 49.546875 -83.65625 C 49.222656 -83.40625 48.875 -83.15625 48.5 -82.90625 C 48.132812 -82.664062 47.789062 -82.460938 47.46875 -82.296875 C 45.34375 -80.992188 44.28125 -79.195312 44.28125 -76.90625 L 44.28125 -12.015625 C 44.28125 -9.734375 45.34375 -7.9375 47.46875 -6.625 C 47.789062 -6.457031 48.132812 -6.25 48.5 -6 C 48.875 -5.757812 49.222656 -5.519531 49.546875 -5.28125 C 50.609375 -4.539062 50.9375 -3.472656 50.53125 -2.078125 C 50.125 -0.691406 49.265625 0 47.953125 0 Z M 9.9375 0 "/></g></g></g><g fill="#000000" fill-opacity="1"><g transform="translate(395.921484, 389.699902)"><g><path d="M 2.40625 -56.421875 C 1.6875 -56.921875 1.460938 -57.640625 1.734375 -58.578125 C 2.015625 -59.515625 2.59375 -59.984375 3.46875 -59.984375 L 31.609375 -59.984375 C 32.429688 -59.984375 32.976562 -59.515625 33.25 -58.578125 C 33.53125 -57.640625 33.3125 -56.921875 32.59375 -56.421875 C 32.539062 -56.367188 32.472656 -56.300781 32.390625 -56.21875 C 32.304688 -56.132812 32.207031 -56.035156 32.09375 -55.921875 C 31.101562 -54.546875 31.023438 -53.222656 31.859375 -51.953125 L 32.09375 -51.546875 L 32.015625 -51.546875 L 45.828125 -28.875 L 59.15625 -52.046875 C 59.539062 -52.753906 59.648438 -53.453125 59.484375 -54.140625 C 59.316406 -54.835938 58.929688 -55.378906 58.328125 -55.765625 C 58.109375 -55.867188 57.914062 -55.988281 57.75 -56.125 C 57.582031 -56.269531 57.414062 -56.367188 57.25 -56.421875 C 56.53125 -56.921875 56.304688 -57.640625 56.578125 -58.578125 C 56.859375 -59.515625 57.414062 -59.984375 58.25 -59.984375 L 69.578125 -59.984375 C 70.460938 -59.984375 71.039062 -59.515625 71.3125 -58.578125 C 71.59375 -57.640625 71.375 -56.921875 70.65625 -56.421875 C 70.375 -56.203125 70.109375 -56.007812 69.859375 -55.84375 C 69.617188 -55.675781 69.359375 -55.507812 69.078125 -55.34375 C 68.203125 -54.851562 67.472656 -54.34375 66.890625 -53.8125 C 66.304688 -53.289062 65.878906 -52.8125 65.609375 -52.375 L 47.734375 -21.671875 L 47.734375 -8.1875 C 47.734375 -6.644531 48.453125 -5.429688 49.890625 -4.546875 C 50.109375 -4.441406 50.34375 -4.304688 50.59375 -4.140625 C 50.84375 -3.972656 51.078125 -3.804688 51.296875 -3.640625 C 52.015625 -3.140625 52.21875 -2.421875 51.90625 -1.484375 C 51.601562 -0.546875 51.039062 -0.078125 50.21875 -0.078125 L 24.578125 -0.078125 C 23.742188 -0.078125 23.1875 -0.546875 22.90625 -1.484375 C 22.632812 -2.421875 22.859375 -3.140625 23.578125 -3.640625 C 23.960938 -3.910156 24.515625 -4.242188 25.234375 -4.640625 C 26.722656 -5.410156 27.46875 -6.59375 27.46875 -8.1875 L 27.46875 -21.265625 L 7.53125 -52.375 C 7.144531 -52.976562 6.617188 -53.539062 5.953125 -54.0625 C 5.296875 -54.59375 4.632812 -55.050781 3.96875 -55.4375 C 3.75 -55.601562 3.5 -55.765625 3.21875 -55.921875 C 2.945312 -56.085938 2.675781 -56.253906 2.40625 -56.421875 Z M 2.40625 -56.421875 "/></g></g></g><g fill="#000000" fill-opacity="1"><g transform="translate(467.312083, 389.699902)"><g><path d="M 3.890625 0 C 3.003906 0 2.421875 -0.46875 2.140625 -1.40625 C 1.867188 -2.34375 2.09375 -3.0625 2.8125 -3.5625 C 3.144531 -3.78125 3.472656 -3.984375 3.796875 -4.171875 C 4.128906 -4.367188 4.488281 -4.578125 4.875 -4.796875 C 6.53125 -5.628906 7.609375 -6.675781 8.109375 -7.9375 L 27.46875 -55.84375 L 25.5625 -60.96875 C 25.34375 -61.6875 25.367188 -62.238281 25.640625 -62.625 C 25.921875 -63.007812 26.421875 -63.175781 27.140625 -63.125 L 44.1875 -62.140625 C 44.957031 -62.078125 45.65625 -61.828125 46.28125 -61.390625 C 46.914062 -60.953125 47.347656 -60.375 47.578125 -59.65625 L 68 -7.9375 C 68.613281 -6.507812 69.664062 -5.378906 71.15625 -4.546875 C 71.425781 -4.378906 71.695312 -4.210938 71.96875 -4.046875 C 72.25 -3.890625 72.5 -3.726562 72.71875 -3.5625 C 73.4375 -3.0625 73.65625 -2.34375 73.375 -1.40625 C 73.101562 -0.46875 72.523438 0 71.640625 0 L 43.515625 0 C 42.691406 0 42.140625 -0.46875 41.859375 -1.40625 C 41.585938 -2.34375 41.8125 -3.0625 42.53125 -3.5625 C 42.75 -3.664062 42.96875 -3.8125 43.1875 -4 C 43.40625 -4.195312 43.625 -4.378906 43.84375 -4.546875 C 45.113281 -5.648438 45.53125 -6.890625 45.09375 -8.265625 L 42.1875 -16.21875 L 17.375 -16.21875 L 14.484375 -8.765625 L 14.234375 -7.9375 C 13.953125 -7.21875 13.921875 -6.5 14.140625 -5.78125 C 14.367188 -5.070312 14.757812 -4.492188 15.3125 -4.046875 C 15.414062 -3.992188 15.535156 -3.925781 15.671875 -3.84375 C 15.816406 -3.757812 15.941406 -3.664062 16.046875 -3.5625 C 16.765625 -3.0625 16.984375 -2.34375 16.703125 -1.40625 C 16.429688 -0.46875 15.882812 0 15.0625 0 Z M 30.203125 -48.484375 L 19.359375 -21.09375 L 40.375 -21.09375 Z M 30.203125 -48.484375 "/></g></g></g><g fill="#000000" fill-opacity="1"><g transform="translate(542.838872, 389.699902)"><g><path d="M 3.140625 -14.5625 C 3.035156 -16.65625 3.65625 -18.390625 5 -19.765625 C 6.351562 -21.148438 8.132812 -21.785156 10.34375 -21.671875 C 12.21875 -21.617188 13.773438 -21.148438 15.015625 -20.265625 C 16.253906 -19.390625 17.34375 -18.285156 18.28125 -16.953125 C 19.21875 -15.628906 20.128906 -14.207031 21.015625 -12.6875 C 21.898438 -11.175781 22.921875 -9.726562 24.078125 -8.34375 C 25.234375 -6.96875 26.648438 -5.785156 28.328125 -4.796875 C 30.015625 -3.804688 32.15625 -3.171875 34.75 -2.890625 C 37.613281 -2.566406 40.023438 -2.875 41.984375 -3.8125 C 43.941406 -4.75 45.085938 -6.207031 45.421875 -8.1875 C 45.691406 -9.894531 45.148438 -11.4375 43.796875 -12.8125 C 42.453125 -14.195312 40.550781 -15.507812 38.09375 -16.75 C 35.644531 -17.988281 32.929688 -19.226562 29.953125 -20.46875 C 26.972656 -21.71875 23.960938 -23.054688 20.921875 -24.484375 C 17.890625 -25.921875 15.09375 -27.519531 12.53125 -29.28125 C 9.96875 -31.050781 7.898438 -33.066406 6.328125 -35.328125 C 4.753906 -37.585938 3.96875 -40.207031 3.96875 -43.1875 C 3.96875 -47.050781 5.113281 -50.304688 7.40625 -52.953125 C 9.695312 -55.597656 12.828125 -57.625 16.796875 -59.03125 C 20.765625 -60.4375 25.285156 -61.113281 30.359375 -61.0625 C 35.765625 -61.0625 40.46875 -60.410156 44.46875 -59.109375 C 48.46875 -57.816406 51.664062 -56.175781 54.0625 -54.1875 C 56.46875 -52.207031 57.914062 -50.195312 58.40625 -48.15625 C 59.070312 -45.5625 58.726562 -43.570312 57.375 -42.1875 C 56.019531 -40.8125 54.320312 -40.125 52.28125 -40.125 C 51.125 -40.125 49.910156 -40.375 48.640625 -40.875 C 46.929688 -41.59375 45.507812 -42.539062 44.375 -43.71875 C 43.25 -44.90625 42.242188 -46.203125 41.359375 -47.609375 C 40.484375 -49.015625 39.578125 -50.363281 38.640625 -51.65625 C 37.703125 -52.957031 36.570312 -54.078125 35.25 -55.015625 C 33.925781 -55.953125 32.242188 -56.5625 30.203125 -56.84375 C 27.992188 -57.164062 26.035156 -57.09375 24.328125 -56.625 C 22.617188 -56.15625 21.28125 -55.425781 20.3125 -54.4375 C 19.34375 -53.445312 18.914062 -52.289062 19.03125 -50.96875 C 19.132812 -49.363281 20.015625 -47.925781 21.671875 -46.65625 C 23.328125 -45.394531 25.460938 -44.171875 28.078125 -42.984375 C 30.703125 -41.796875 33.554688 -40.59375 36.640625 -39.375 C 39.734375 -38.164062 42.8125 -36.859375 45.875 -35.453125 C 48.9375 -34.046875 51.722656 -32.472656 54.234375 -30.734375 C 56.742188 -28.992188 58.726562 -26.992188 60.1875 -24.734375 C 61.644531 -22.472656 62.296875 -19.878906 62.140625 -16.953125 C 61.972656 -13.148438 60.644531 -9.894531 58.15625 -7.1875 C 55.675781 -4.488281 52.328125 -2.421875 48.109375 -0.984375 C 43.890625 0.441406 39.050781 1.15625 33.59375 1.15625 C 27.738281 1.15625 22.550781 0.492188 18.03125 -0.828125 C 13.507812 -2.148438 9.9375 -3.992188 7.3125 -6.359375 C 4.695312 -8.734375 3.304688 -11.46875 3.140625 -14.5625 Z M 3.140625 -14.5625 "/></g></g></g><g fill="#000000" fill-opacity="1"><g transform="translate(395.615589, 534.822067)"><g><path d="M 5.84375 -15.765625 L 11.71875 -15.765625 L 11.71875 -11.875 L 5.84375 -11.875 L 5.84375 -3.890625 L 13.234375 -3.890625 L 13.234375 0 L 1.5625 0 L 1.5625 -27.25 L 13.234375 -27.25 L 13.234375 -23.359375 L 5.84375 -23.359375 Z M 5.84375 -15.765625 "/></g></g></g><g fill="#000000" fill-opacity="1"><g transform="translate(412.162642, 534.822067)"><g><path d="M 10.515625 0 C 10.460938 -0.175781 10.410156 -0.34375 10.359375 -0.5 C 10.304688 -0.65625 10.257812 -0.847656 10.21875 -1.078125 C 10.175781 -1.316406 10.148438 -1.617188 10.140625 -1.984375 C 10.128906 -2.347656 10.125 -2.800781 10.125 -3.34375 L 10.125 -7.625 C 10.125 -8.90625 9.898438 -9.800781 9.453125 -10.3125 C 9.015625 -10.832031 8.300781 -11.09375 7.3125 -11.09375 L 5.84375 -11.09375 L 5.84375 0 L 1.5625 0 L 1.5625 -27.25 L 8.015625 -27.25 C 10.253906 -27.25 11.875 -26.726562 12.875 -25.6875 C 13.875 -24.65625 14.375 -23.085938 14.375 -20.984375 L 14.375 -18.84375 C 14.375 -16.039062 13.4375 -14.195312 11.5625 -13.3125 C 12.65625 -12.875 13.398438 -12.15625 13.796875 -11.15625 C 14.203125 -10.15625 14.40625 -8.941406 14.40625 -7.515625 L 14.40625 -3.3125 C 14.40625 -2.632812 14.429688 -2.039062 14.484375 -1.53125 C 14.535156 -1.03125 14.664062 -0.519531 14.875 0 Z M 5.84375 -23.359375 L 5.84375 -14.984375 L 7.515625 -14.984375 C 8.316406 -14.984375 8.941406 -15.191406 9.390625 -15.609375 C 9.847656 -16.023438 10.078125 -16.78125 10.078125 -17.875 L 10.078125 -20.5625 C 10.078125 -21.539062 9.898438 -22.25 9.546875 -22.6875 C 9.203125 -23.132812 8.65625 -23.359375 7.90625 -23.359375 Z M 5.84375 -23.359375 "/></g></g></g><g fill="#000000" fill-opacity="1"><g transform="translate(430.03342, 534.822067)"><g><path d="M 10.625 -7.90625 L 13.546875 -27.25 L 19.5 -27.25 L 19.5 0 L 15.453125 0 L 15.453125 -19.546875 L 12.5 0 L 8.453125 0 L 5.25 -19.28125 L 5.25 0 L 1.515625 0 L 1.515625 -27.25 L 7.46875 -27.25 Z M 10.625 -7.90625 "/></g></g></g><g fill="#000000" fill-opacity="1"><g transform="translate(453.315881, 534.822067)"><g><path d="M 1.5625 -27.25 L 5.84375 -27.25 L 5.84375 0 L 1.5625 0 Z M 1.5625 -27.25 "/></g></g></g><g fill="#000000" fill-opacity="1"><g transform="translate(462.932855, 534.822067)"><g><path d="M 1.5625 -23.125 L 1.5625 -27.25 L 5.6875 -27.25 L 5.6875 -23.5625 L 3.8125 -19.234375 L 2.0625 -19.234375 L 3.1875 -23.125 Z M 1.5625 -23.125 "/></g></g></g><g fill="#000000" fill-opacity="1"><g transform="translate(472.394093, 534.822067)"><g><path d="M 1.015625 -20.71875 C 1.015625 -22.925781 1.539062 -24.617188 2.59375 -25.796875 C 3.644531 -26.972656 5.21875 -27.5625 7.3125 -27.5625 C 9.414062 -27.5625 10.992188 -26.972656 12.046875 -25.796875 C 13.097656 -24.617188 13.625 -22.925781 13.625 -20.71875 L 13.625 -19.65625 L 9.578125 -19.65625 L 9.578125 -20.984375 C 9.578125 -21.972656 9.390625 -22.664062 9.015625 -23.0625 C 8.640625 -23.46875 8.113281 -23.671875 7.4375 -23.671875 C 6.757812 -23.671875 6.234375 -23.46875 5.859375 -23.0625 C 5.484375 -22.664062 5.296875 -21.972656 5.296875 -20.984375 C 5.296875 -20.046875 5.503906 -19.21875 5.921875 -18.5 C 6.335938 -17.789062 6.851562 -17.117188 7.46875 -16.484375 C 8.09375 -15.847656 8.757812 -15.210938 9.46875 -14.578125 C 10.1875 -13.941406 10.859375 -13.25 11.484375 -12.5 C 12.109375 -11.75 12.628906 -10.890625 13.046875 -9.921875 C 13.460938 -8.960938 13.671875 -7.835938 13.671875 -6.546875 C 13.671875 -4.335938 13.128906 -2.640625 12.046875 -1.453125 C 10.972656 -0.273438 9.382812 0.3125 7.28125 0.3125 C 5.175781 0.3125 3.582031 -0.273438 2.5 -1.453125 C 1.425781 -2.640625 0.890625 -4.335938 0.890625 -6.546875 L 0.890625 -8.40625 L 4.9375 -8.40625 L 4.9375 -6.265625 C 4.9375 -5.285156 5.140625 -4.597656 5.546875 -4.203125 C 5.953125 -3.816406 6.492188 -3.625 7.171875 -3.625 C 7.835938 -3.625 8.375 -3.816406 8.78125 -4.203125 C 9.1875 -4.597656 9.390625 -5.285156 9.390625 -6.265625 C 9.390625 -7.203125 9.179688 -8.023438 8.765625 -8.734375 C 8.347656 -9.453125 7.828125 -10.128906 7.203125 -10.765625 C 6.578125 -11.398438 5.90625 -12.035156 5.1875 -12.671875 C 4.476562 -13.304688 3.8125 -14 3.1875 -14.75 C 2.570312 -15.507812 2.054688 -16.367188 1.640625 -17.328125 C 1.222656 -18.285156 1.015625 -19.414062 1.015625 -20.71875 Z M 1.015625 -20.71875 "/></g></g></g><g fill="#000000" fill-opacity="1"><g transform="translate(489.174753, 534.822067)"><g/></g></g><g fill="#000000" fill-opacity="1"><g transform="translate(497.429068, 534.822067)"><g><path d="M 13.984375 -10.15625 L 13.984375 -6.546875 C 13.984375 -4.335938 13.441406 -2.640625 12.359375 -1.453125 C 11.285156 -0.273438 9.695312 0.3125 7.59375 0.3125 C 5.488281 0.3125 3.894531 -0.273438 2.8125 -1.453125 C 1.738281 -2.640625 1.203125 -4.335938 1.203125 -6.546875 L 1.203125 -20.71875 C 1.203125 -22.925781 1.738281 -24.617188 2.8125 -25.796875 C 3.894531 -26.972656 5.488281 -27.5625 7.59375 -27.5625 C 9.695312 -27.5625 11.285156 -26.972656 12.359375 -25.796875 C 13.441406 -24.617188 13.984375 -22.925781 13.984375 -20.71875 L 13.984375 -18.0625 L 9.921875 -18.0625 L 9.921875 -20.984375 C 9.921875 -21.972656 9.71875 -22.664062 9.3125 -23.0625 C 8.914062 -23.46875 8.378906 -23.671875 7.703125 -23.671875 C 7.035156 -23.671875 6.5 -23.46875 6.09375 -23.0625 C 5.6875 -22.664062 5.484375 -21.972656 5.484375 -20.984375 L 5.484375 -6.265625 C 5.484375 -5.285156 5.6875 -4.597656 6.09375 -4.203125 C 6.5 -3.816406 7.035156 -3.625 7.703125 -3.625 C 8.378906 -3.625 8.914062 -3.816406 9.3125 -4.203125 C 9.71875 -4.597656 9.921875 -5.285156 9.921875 -6.265625 L 9.921875 -10.15625 Z M 13.984375 -10.15625 "/></g></g></g><g fill="#000000" fill-opacity="1"><g transform="translate(514.67692, 534.822067)"><g><path d="M 5.484375 -6.265625 C 5.484375 -5.285156 5.6875 -4.59375 6.09375 -4.1875 C 6.5 -3.78125 7.035156 -3.578125 7.703125 -3.578125 C 8.378906 -3.578125 8.914062 -3.78125 9.3125 -4.1875 C 9.71875 -4.59375 9.921875 -5.285156 9.921875 -6.265625 L 9.921875 -20.984375 C 9.921875 -21.972656 9.71875 -22.664062 9.3125 -23.0625 C 8.914062 -23.46875 8.378906 -23.671875 7.703125 -23.671875 C 7.035156 -23.671875 6.5 -23.46875 6.09375 -23.0625 C 5.6875 -22.664062 5.484375 -21.972656 5.484375 -20.984375 Z M 1.203125 -20.71875 C 1.203125 -22.925781 1.757812 -24.617188 2.875 -25.796875 C 4 -26.972656 5.609375 -27.5625 7.703125 -27.5625 C 9.804688 -27.5625 11.414062 -26.972656 12.53125 -25.796875 C 13.65625 -24.617188 14.21875 -22.925781 14.21875 -20.71875 L 14.21875 -6.546875 C 14.21875 -4.335938 13.65625 -2.640625 12.53125 -1.453125 C 11.414062 -0.273438 9.804688 0.3125 7.703125 0.3125 C 5.609375 0.3125 4 -0.273438 2.875 -1.453125 C 1.757812 -2.640625 1.203125 -4.335938 1.203125 -6.546875 Z M 1.203125 -20.71875 "/></g></g></g><g fill="#000000" fill-opacity="1"><g transform="translate(532.314095, 534.822067)"><g><path d="M 10.515625 0 C 10.460938 -0.175781 10.410156 -0.34375 10.359375 -0.5 C 10.304688 -0.65625 10.257812 -0.847656 10.21875 -1.078125 C 10.175781 -1.316406 10.148438 -1.617188 10.140625 -1.984375 C 10.128906 -2.347656 10.125 -2.800781 10.125 -3.34375 L 10.125 -7.625 C 10.125 -8.90625 9.898438 -9.800781 9.453125 -10.3125 C 9.015625 -10.832031 8.300781 -11.09375 7.3125 -11.09375 L 5.84375 -11.09375 L 5.84375 0 L 1.5625 0 L 1.5625 -27.25 L 8.015625 -27.25 C 10.253906 -27.25 11.875 -26.726562 12.875 -25.6875 C 13.875 -24.65625 14.375 -23.085938 14.375 -20.984375 L 14.375 -18.84375 C 14.375 -16.039062 13.4375 -14.195312 11.5625 -13.3125 C 12.65625 -12.875 13.398438 -12.15625 13.796875 -11.15625 C 14.203125 -10.15625 14.40625 -8.941406 14.40625 -7.515625 L 14.40625 -3.3125 C 14.40625 -2.632812 14.429688 -2.039062 14.484375 -1.53125 C 14.535156 -1.03125 14.664062 -0.519531 14.875 0 Z M 5.84375 -23.359375 L 5.84375 -14.984375 L 7.515625 -14.984375 C 8.316406 -14.984375 8.941406 -15.191406 9.390625 -15.609375 C 9.847656 -16.023438 10.078125 -16.78125 10.078125 -17.875 L 10.078125 -20.5625 C 10.078125 -21.539062 9.898438 -22.25 9.546875 -22.6875 C 9.203125 -23.132812 8.65625 -23.359375 7.90625 -23.359375 Z M 5.84375 -23.359375 "/></g></g></g><g fill="#000000" fill-opacity="1"><g transform="translate(550.184867, 534.822067)"><g><path d="M 5.375 -19.734375 L 5.375 0 L 1.515625 0 L 1.515625 -27.25 L 6.890625 -27.25 L 11.296875 -10.9375 L 11.296875 -27.25 L 15.109375 -27.25 L 15.109375 0 L 10.703125 0 Z M 5.375 -19.734375 "/></g></g></g><g fill="#000000" fill-opacity="1"><g transform="translate(569.028965, 534.822067)"><g><path d="M 5.84375 -15.765625 L 11.71875 -15.765625 L 11.71875 -11.875 L 5.84375 -11.875 L 5.84375 -3.890625 L 13.234375 -3.890625 L 13.234375 0 L 1.5625 0 L 1.5625 -27.25 L 13.234375 -27.25 L 13.234375 -23.359375 L 5.84375 -23.359375 Z M 5.84375 -15.765625 "/></g></g></g><g fill="#000000" fill-opacity="1"><g transform="translate(585.57602, 534.822067)"><g><path d="M 10.515625 0 C 10.460938 -0.175781 10.410156 -0.34375 10.359375 -0.5 C 10.304688 -0.65625 10.257812 -0.847656 10.21875 -1.078125 C 10.175781 -1.316406 10.148438 -1.617188 10.140625 -1.984375 C 10.128906 -2.347656 10.125 -2.800781 10.125 -3.34375 L 10.125 -7.625 C 10.125 -8.90625 9.898438 -9.800781 9.453125 -10.3125 C 9.015625 -10.832031 8.300781 -11.09375 7.3125 -11.09375 L 5.84375 -11.09375 L 5.84375 0 L 1.5625 0 L 1.5625 -27.25 L 8.015625 -27.25 C 10.253906 -27.25 11.875 -26.726562 12.875 -25.6875 C 13.875 -24.65625 14.375 -23.085938 14.375 -20.984375 L 14.375 -18.84375 C 14.375 -16.039062 13.4375 -14.195312 11.5625 -13.3125 C 12.65625 -12.875 13.398438 -12.15625 13.796875 -11.15625 C 14.203125 -10.15625 14.40625 -8.941406 14.40625 -7.515625 L 14.40625 -3.3125 C 14.40625 -2.632812 14.429688 -2.039062 14.484375 -1.53125 C 14.535156 -1.03125 14.664062 -0.519531 14.875 0 Z M 5.84375 -23.359375 L 5.84375 -14.984375 L 7.515625 -14.984375 C 8.316406 -14.984375 8.941406 -15.191406 9.390625 -15.609375 C 9.847656 -16.023438 10.078125 -16.78125 10.078125 -17.875 L 10.078125 -20.5625 C 10.078125 -21.539062 9.898438 -22.25 9.546875 -22.6875 C 9.203125 -23.132812 8.65625 -23.359375 7.90625 -23.359375 Z M 5.84375 -23.359375 "/></g></g></g></svg>