<svg xmlns="http://www.w3.org/2000/svg" xmlns:xlink="http://www.w3.org/1999/xlink" width="500" zoomAndPan="magnify" viewBox="0 0 375 374.999991" height="500" preserveAspectRatio="xMidYMid meet" version="1.0"><defs><g/><clipPath id="d515574752"><path d="M 97.722656 133.28125 L 295.703125 133.28125 L 295.703125 236.03125 L 97.722656 236.03125 Z M 97.722656 133.28125 " clip-rule="nonzero"/></clipPath><clipPath id="7eb4989cbb"><path d="M 131.820312 152.449219 L 267.195312 152.449219 L 267.195312 216.460938 L 131.820312 216.460938 Z M 131.820312 152.449219 " clip-rule="nonzero"/></clipPath></defs><rect x="-37.5" width="450" fill="#ffffff" y="-37.499999" height="449.999989" fill-opacity="1"/><rect x="-37.5" width="450" fill="#ffffff" y="-37.499999" height="449.999989" fill-opacity="1"/><g clip-path="url(#d515574752)"><path stroke-linecap="butt" transform="matrix(0.75, 0, 0, 0.75, 97.723577, 133.281027)" fill="none" stroke-linejoin="miter" d="M -0.00122804 0.000297003 L 263.972748 0.000297003 L 263.972748 137.484681 L -0.00122804 137.484681 Z M -0.00122804 0.000297003 " stroke="#000000" stroke-width="6" stroke-opacity="1" stroke-miterlimit="4"/></g><g clip-path="url(#7eb4989cbb)"><path fill="#000000" d="M 131.820312 152.449219 L 267.09375 152.449219 L 267.09375 216.460938 L 131.820312 216.460938 Z M 131.820312 152.449219 " fill-opacity="1" fill-rule="nonzero"/></g><g fill="#ffffff" fill-opacity="1"><g transform="translate(157.736506, 194.426248)"><g><path d="M 3.140625 0 L 3.140625 -21.5 L 16.1875 -21.5 L 16.1875 -18.984375 L 5.84375 -18.984375 L 5.84375 -12.203125 L 15.421875 -12.203125 L 15.421875 -9.703125 L 5.84375 -9.703125 L 5.84375 -2.515625 L 16.53125 -2.515625 L 16.53125 0 Z M 3.140625 0 "/></g></g></g><g fill="#ffffff" fill-opacity="1"><g transform="translate(178.589619, 194.426248)"><g><path d="M 3.140625 0 L 3.140625 -21.5 L 11.328125 -21.5 C 12.828125 -21.5 14.128906 -21.21875 15.234375 -20.65625 C 16.335938 -20.09375 17.195312 -19.296875 17.8125 -18.265625 C 18.425781 -17.242188 18.734375 -16.019531 18.734375 -14.59375 C 18.734375 -12.851562 18.28125 -11.414062 17.375 -10.28125 C 16.476562 -9.144531 15.242188 -8.378906 13.671875 -7.984375 L 19.078125 0 L 15.8125 0 L 10.5625 -7.703125 L 5.84375 -7.703125 L 5.84375 0 Z M 5.84375 -10.296875 L 11.03125 -10.296875 C 12.601562 -10.296875 13.816406 -10.664062 14.671875 -11.40625 C 15.535156 -12.15625 15.96875 -13.21875 15.96875 -14.59375 C 15.96875 -15.96875 15.535156 -17.03125 14.671875 -17.78125 C 13.816406 -18.539062 12.601562 -18.921875 11.03125 -18.921875 L 5.84375 -18.921875 Z M 5.84375 -10.296875 "/></g></g></g><g fill="#ffffff" fill-opacity="1"><g transform="translate(201.838121, 194.426248)"><g><path d="M 3.140625 0 L 3.140625 -21.5 L 5.65625 -21.5 L 14.09375 -8.75 L 22.484375 -21.5 L 25 -21.5 L 25 0 L 22.296875 0 L 22.296875 -16.4375 L 15.171875 -5.71875 L 12.96875 -5.71875 L 5.84375 -16.46875 L 5.84375 0 Z M 3.140625 0 "/></g></g></g><g fill="#ffffff" fill-opacity="1"><g transform="translate(232.30349, 194.426248)"><g><path d="M 3.140625 0 L 3.140625 -21.5 L 5.84375 -21.5 L 5.84375 0 Z M 3.140625 0 "/></g></g></g></svg>